     <svg xmlns="http://www.w3.org/2000/svg">
      <symbol viewBox="0 0 85 13" id="logo" width="85" height="13"  >
            <g>
<path d="M0 0.267489H1.98644L6.83569 9.98628L11.6849 0.267489H13.6714V12.7325H11.7434V3.86968L7.32256 12.7325H6.34882L1.90854 3.86968V12.7325H0V0.267489Z" fill="#122947"/>
<path d="M20.7532 0.267489H22.6618L28.0953 12.7325H26.0699L24.7066 9.62963H18.6889L17.3646 12.7325H15.3197L20.7532 0.267489ZM24.1613 8.11385L21.7075 2.28258L19.2537 8.11385H24.1613Z" fill="#122947"/>
<path d="M30.2393 0.267489H35.7118C37.1659 0.267489 38.2825 0.588477 39.0615 1.23045C39.8405 1.87243 40.23 2.81161 40.23 4.04801C40.23 4.96342 39.9638 5.74211 39.4315 6.38409C38.8992 7.01417 38.1461 7.44216 37.1724 7.66804L40.1715 12.7325H38.1072L35.2054 7.8107H32.2258V12.7325H30.2393V0.267489ZM35.3807 6.27709C36.2506 6.27709 36.9387 6.09282 37.445 5.72428C37.9644 5.34385 38.224 4.78509 38.224 4.04801C38.224 3.2396 37.9709 2.66301 37.4645 2.31824C36.9712 1.97348 36.2766 1.8011 35.3807 1.8011H32.2258V6.27709H35.3807Z" fill="#122947"/>
<path d="M48.8651 13C47.5148 13 46.2944 12.7325 45.2038 12.1975C44.1132 11.6507 43.2563 10.8839 42.6331 9.89712C42.0099 8.91038 41.6983 7.78098 41.6983 6.50892C41.6983 5.23685 42.0099 4.10745 42.6331 3.12071C43.2563 2.13397 44.1132 1.36717 45.2038 0.820302C46.2944 0.273434 47.5148 0 48.8651 0C50.2154 0 51.4358 0.273434 52.5264 0.820302C53.617 1.36717 54.4739 2.13397 55.0971 3.12071C55.7203 4.10745 56.0319 5.23685 56.0319 6.50892C56.0319 7.78098 55.7203 8.91038 55.0971 9.89712C54.4739 10.8839 53.617 11.6507 52.5264 12.1975C51.4358 12.7325 50.2154 13 48.8651 13ZM48.8651 11.3594C49.8259 11.3594 50.6957 11.1632 51.4747 10.7709C52.2667 10.3667 52.8899 9.80201 53.3443 9.07682C53.7987 8.33974 54.0259 7.48377 54.0259 6.50892C54.0259 5.54595 53.7987 4.70188 53.3443 3.97668C52.9029 3.2396 52.2927 2.6749 51.5137 2.28258C50.7347 1.87837 49.8648 1.67627 48.904 1.67627C47.9303 1.67627 47.0474 1.87243 46.2555 2.26475C45.4765 2.65706 44.8533 3.22177 44.3859 3.95885C43.9314 4.69593 43.7042 5.54595 43.7042 6.50892C43.7042 7.48377 43.9314 8.33974 44.3859 9.07682C44.8403 9.80201 45.457 10.3667 46.236 10.7709C47.028 11.1632 47.9043 11.3594 48.8651 11.3594Z" fill="#122947"/>
<path d="M64.8596 13C63.5093 13 62.2889 12.7325 61.1983 12.1975C60.1077 11.6507 59.2508 10.8839 58.6276 9.89712C58.0044 8.91038 57.6928 7.78098 57.6928 6.50892C57.6928 5.23685 58.0044 4.10745 58.6276 3.12071C59.2508 2.13397 60.1077 1.36717 61.1983 0.820302C62.2889 0.273434 63.5093 0 64.8596 0C66.2099 0 67.4303 0.273434 68.5209 0.820302C69.6115 1.36717 70.4684 2.13397 71.0916 3.12071C71.7148 4.10745 72.0264 5.23685 72.0264 6.50892C72.0264 7.78098 71.7148 8.91038 71.0916 9.89712C70.4684 10.8839 69.6115 11.6507 68.5209 12.1975C67.4303 12.7325 66.2099 13 64.8596 13ZM64.8596 11.3594C65.8204 11.3594 66.6902 11.1632 67.4692 10.7709C68.2612 10.3667 68.8844 9.80201 69.3388 9.07682C69.7933 8.33974 70.0205 7.48377 70.0205 6.50892C70.0205 5.54595 69.7933 4.70188 69.3388 3.97668C68.8974 3.2396 68.2872 2.6749 67.5082 2.28258C66.7292 1.87837 65.8593 1.67627 64.8986 1.67627C63.9248 1.67627 63.042 1.87243 62.25 2.26475C61.471 2.65706 60.8478 3.22177 60.3804 3.95885C59.926 4.69593 59.6988 5.54595 59.6988 6.50892C59.6988 7.48377 59.926 8.33974 60.3804 9.07682C60.8348 9.80201 61.4515 10.3667 62.2305 10.7709C63.0225 11.1632 63.8988 11.3594 64.8596 11.3594Z" fill="#122947"/>
<path d="M74.172 0.267489H76.061L82.9941 9.6653V0.267489H85V12.7325H83.0915L76.1584 3.33471V12.7325H74.172V0.267489Z" fill="#122947"/>            </g>
         </symbol> 
     
         <symbol viewBox="0 0 16 16" id="close" width="16" height="16">
            <g>
               <path d="M1 1L8 8M15 15L8 8M8 8L15 1L1 15" stroke="#122947" stroke-width="2"/>   
            </g>
         </symbol> 
         <symbol viewBox="0 0 22 13" id="burger" width="22" height="13">
            <g>
               <path d="M0 1H22M0 6.5H22M0 12H22" stroke="#122947" stroke-width="2"/>            </g>
         </symbol>
         <symbol viewBox="0 0 25 13" id="prev" width="25" height="13">
            <g>
               <path d="M25 6.5H0.999999M0.999999 6.5L6.81818 1M0.999999 6.5L6.81818 12" stroke="#122947"/>
            </g>
         </symbol>
         <symbol viewBox="0 0 24 12"  id="next" width="24" height="12">
            <g>
               <path d="M0 6H23M23 6L17.4242 1M23 6L17.4242 11" stroke="#122947"/>  
            </g>
         </symbol>
         <symbol viewBox="0 0 11 18" id="fb" width="11" height="18">
            <g>
               <path d="M6.28571 7H11L10.4762 9H6.28571V18H4.19048V9H0V7H4.19048V5.128C4.19048 3.345 4.38533 2.698 4.74991 2.046C5.10715 1.40181 5.65904 0.875009 6.3339 0.534C7.01695 0.186 7.69476 0 9.56267 0C10.1095 0 10.5893 0.0500001 11 0.15V2H9.56267C8.17562 2 7.75343 2.078 7.32286 2.298C7.00438 2.46 6.76762 2.686 6.59791 2.99C6.36743 3.401 6.28571 3.804 6.28571 5.128V7Z" fill="#122947"/>
            </g>
         </symbol>
         <symbol viewBox="0 0 20 20" id="inst" width="20" height="20">
            <g>
                 <path d="M10 7C9.20435 7 8.44129 7.31607 7.87868 7.87868C7.31607 8.44129 7 9.20435 7 10C7 10.7956 7.31607 11.5587 7.87868 12.1213C8.44129 12.6839 9.20435 13 10 13C10.7956 13 11.5587 12.6839 12.1213 12.1213C12.6839 11.5587 13 10.7956 13 10C13 9.20435 12.6839 8.44129 12.1213 7.87868C11.5587 7.31607 10.7956 7 10 7ZM10 5C11.3261 5 12.5979 5.52678 13.5355 6.46447C14.4732 7.40215 15 8.67392 15 10C15 11.3261 14.4732 12.5979 13.5355 13.5355C12.5979 14.4732 11.3261 15 10 15C8.67392 15 7.40215 14.4732 6.46447 13.5355C5.52678 12.5979 5 11.3261 5 10C5 8.67392 5.52678 7.40215 6.46447 6.46447C7.40215 5.52678 8.67392 5 10 5ZM16.5 4.75C16.5 5.08152 16.3683 5.39946 16.1339 5.63388C15.8995 5.8683 15.5815 6 15.25 6C14.9185 6 14.6005 5.8683 14.3661 5.63388C14.1317 5.39946 14 5.08152 14 4.75C14 4.41848 14.1317 4.10054 14.3661 3.86612C14.6005 3.6317 14.9185 3.5 15.25 3.5C15.5815 3.5 15.8995 3.6317 16.1339 3.86612C16.3683 4.10054 16.5 4.41848 16.5 4.75ZM10 2C7.526 2 7.122 2.007 5.971 2.058C5.187 2.095 4.661 2.2 4.173 2.39C3.739 2.558 3.426 2.759 3.093 3.093C2.78001 3.3954 2.53935 3.76458 2.389 4.173C2.199 4.663 2.094 5.188 2.058 5.971C2.006 7.075 2 7.461 2 10C2 12.474 2.007 12.878 2.058 14.029C2.095 14.812 2.2 15.339 2.389 15.826C2.559 16.261 2.759 16.574 3.091 16.906C3.428 17.242 3.741 17.443 4.171 17.609C4.665 17.8 5.191 17.906 5.971 17.942C7.075 17.994 7.461 18 10 18C12.474 18 12.878 17.993 14.029 17.942C14.811 17.905 15.338 17.8 15.826 17.611C16.259 17.442 16.574 17.241 16.906 16.909C17.243 16.572 17.444 16.259 17.61 15.829C17.8 15.336 17.906 14.809 17.942 14.029C17.994 12.925 18 12.539 18 10C18 7.526 17.993 7.122 17.942 5.971C17.905 5.189 17.8 4.661 17.61 4.173C17.4593 3.765 17.2191 3.39596 16.907 3.093C16.6047 2.77985 16.2355 2.53917 15.827 2.389C15.337 2.199 14.811 2.094 14.029 2.058C12.925 2.006 12.539 2 10 2ZM10 0C12.717 0 13.056 0.00999994 14.122 0.0599999C15.187 0.11 15.912 0.277 16.55 0.525C17.21 0.779 17.766 1.123 18.322 1.678C18.8305 2.1779 19.224 2.78259 19.475 3.45C19.722 4.087 19.89 4.813 19.94 5.878C19.987 6.944 20 7.283 20 10C20 12.717 19.99 13.056 19.94 14.122C19.89 15.187 19.722 15.912 19.475 16.55C19.2247 17.2178 18.8311 17.8226 18.322 18.322C17.822 18.8303 17.2173 19.2238 16.55 19.475C15.913 19.722 15.187 19.89 14.122 19.94C13.056 19.987 12.717 20 10 20C7.283 20 6.944 19.99 5.878 19.94C4.813 19.89 4.088 19.722 3.45 19.475C2.78233 19.2245 2.17753 18.8309 1.678 18.322C1.16941 17.8222 0.775931 17.2175 0.525 16.55C0.277 15.913 0.11 15.187 0.0599999 14.122C0.0129999 13.056 0 12.717 0 10C0 7.283 0.00999994 6.944 0.0599999 5.878C0.11 4.812 0.277 4.088 0.525 3.45C0.775236 2.78218 1.1688 2.17732 1.678 1.678C2.17767 1.16923 2.78243 0.775729 3.45 0.525C4.088 0.277 4.812 0.11 5.878 0.0599999C6.944 0.0129999 7.283 0 10 0Z" fill="#122947"/>
            </g>
         </symbol>
         <symbol viewBox="0 0 20 17" id="tw" width="20" height="17">
            <g>
               <path d="M13.8641 2.04374C13.1063 2.04361 12.3787 2.34819 11.838 2.89193C11.2972 3.43567 10.9865 4.17511 10.9726 4.95114L10.9447 6.55955C10.9431 6.6459 10.9236 6.73093 10.8877 6.80905C10.8517 6.88717 10.8 6.95662 10.736 7.01284C10.6719 7.06906 10.597 7.11078 10.5162 7.13527C10.4353 7.15975 10.3503 7.16645 10.2667 7.15491L8.71031 6.93842C6.66235 6.65248 4.70013 5.68641 2.81769 4.08004C2.22145 7.46026 3.38601 9.8019 6.19074 11.6084L7.9326 12.7297C8.01536 12.783 8.08412 12.8562 8.13286 12.943C8.18159 13.0298 8.20882 13.1275 8.21217 13.2275C8.21551 13.3276 8.19487 13.427 8.15204 13.517C8.10922 13.607 8.04551 13.6848 7.9665 13.7438L6.37918 14.9315C7.3234 14.9917 8.21975 14.9488 8.96356 14.7977C13.6677 13.8357 16.7955 10.2104 16.7955 4.23016C16.7955 3.74202 15.7864 2.04374 13.8641 2.04374ZM8.97851 4.91335C8.99592 3.92895 9.29646 2.97169 9.84252 2.16141C10.3886 1.35113 11.1559 0.723842 12.0484 0.358092C12.9409 -0.00765845 13.9188 -0.0956204 14.8599 0.105219C15.801 0.306059 16.6633 0.786775 17.3389 1.48718C18.0478 1.48207 18.651 1.66589 20 0.828497C19.666 2.50329 19.5015 3.23039 18.7896 4.23016C18.7896 12.0343 14.1064 15.8291 9.3544 16.8003C6.09602 17.4661 1.35799 16.3724 0 14.9202C0.691959 14.8651 3.50366 14.5556 5.12887 13.3373C3.75393 12.4091 -1.71893 9.11054 1.87746 0.24232C3.56548 2.26126 5.27743 3.63581 7.01231 4.36496C8.16691 4.85003 8.45007 4.83982 8.97951 4.91437L8.97851 4.91335Z" fill="#122947"/>
            </g>
         </symbol>
         <symbol viewBox="0 0 13 17" id="rub" width="13" height="17">
            <g>
               <path d="M2.12195 17V13.7619H0V12.2143H2.12195V10.0952H0V8.28571H2.12195V0H6.70732C8.8374 0 10.4146 0.420635 11.439 1.26191C12.4797 2.10317 13 3.3254 13 4.92857C13 6.54762 12.439 7.81746 11.3171 8.7381C10.1951 9.64286 8.54471 10.0952 6.36585 10.0952H4.31707V12.2143H8.34146V13.7619H4.31707V17H2.12195ZM4.31707 8.28571H6.04878C7.52845 8.28571 8.6748 8.04762 9.4878 7.57143C10.3171 7.09524 10.7317 6.2381 10.7317 5C10.7317 3.92064 10.3902 3.11905 9.70732 2.59524C9.02439 2.07143 7.95935 1.80952 6.51219 1.80952H4.31707V8.28571Z" fill="#122947"/>  
            </g>
         </symbol>
      </svg>